<svg width="10" height="11" viewBox="0 0 10 11" fill="none" xmlns="http://www.w3.org/2000/svg">
<path d="M5 1.125C3.84403 1.13903 2.73937 1.60447 1.92192 2.42192C1.10447 3.23937 0.639026 4.34403 0.625 5.5C0.639026 6.65597 1.10447 7.76063 1.92192 8.57808C2.73937 9.39553 3.84403 9.86097 5 9.875C6.15597 9.86097 7.26063 9.39553 8.07808 8.57808C8.89553 7.76063 9.36097 6.65597 9.375 5.5C9.36097 4.34403 8.89553 3.23937 8.07808 2.42192C7.26063 1.60447 6.15597 1.13903 5 1.125ZM7.5 5.8125H5.3125V8H4.6875V5.8125H2.5V5.1875H4.6875V3H5.3125V5.1875H7.5V5.8125Z" fill="#48A700"/>
</svg>
