<svg width="20" height="20" viewBox="0 0 20 20" fill="none" xmlns="http://www.w3.org/2000/svg">
<path d="M12.7203 18.5403H7.28698C3.19531 18.5403 1.44531 16.7903 1.44531 12.6986V12.5903C1.44531 8.89026 2.90365 7.10693 6.17031 6.7986C6.50365 6.7736 6.82031 7.0236 6.85365 7.36526C6.88698 7.70693 6.63698 8.01526 6.28698 8.0486C3.67031 8.29026 2.69531 9.5236 2.69531 12.5986V12.7069C2.69531 16.0986 3.89531 17.2986 7.28698 17.2986H12.7203C16.112 17.2986 17.312 16.0986 17.312 12.7069V12.5986C17.312 9.50693 16.3203 8.2736 13.6536 8.0486C13.312 8.01526 13.0536 7.71526 13.087 7.3736C13.1203 7.03193 13.412 6.7736 13.762 6.80693C17.0786 7.09026 18.562 8.88193 18.562 12.6069V12.7153C18.562 16.7903 16.812 18.5403 12.7203 18.5403Z" fill="#7A5AF8"/>
<path d="M10 13.124C9.65833 13.124 9.375 12.8406 9.375 12.499V3.01562C9.375 2.67396 9.65833 2.39062 10 2.39062C10.3417 2.39062 10.625 2.67396 10.625 3.01562V12.499C10.625 12.8406 10.3417 13.124 10 13.124Z" fill="#7A5AF8"/>
<path d="M12.7922 5.50052C12.6339 5.50052 12.4755 5.44219 12.3505 5.31719L10.0005 2.96719L7.65052 5.31719C7.40885 5.55885 7.00885 5.55885 6.76719 5.31719C6.52552 5.07552 6.52552 4.67552 6.76719 4.43385L9.55885 1.64219C9.80052 1.40052 10.2005 1.40052 10.4422 1.64219L13.2339 4.43385C13.4755 4.67552 13.4755 5.07552 13.2339 5.31719C13.1172 5.44219 12.9505 5.50052 12.7922 5.50052Z" fill="#7A5AF8"/>
</svg>
