<svg width="20" height="20" viewBox="0 0 20 20" fill="none" xmlns="http://www.w3.org/2000/svg">
<g clip-path="url(#clip0_4133_23800)">
<path d="M17.5 0H2.5C1.83696 0 1.20107 0.263392 0.732233 0.732233C0.263392 1.20107 0 1.83696 0 2.5L0 16.6667H5.75L8.92333 19.3483C9.22416 19.6026 9.6053 19.7421 9.99917 19.7421C10.393 19.7421 10.7742 19.6026 11.075 19.3483L14.25 16.6667H20V2.5C20 1.83696 19.7366 1.20107 19.2678 0.732233C18.7989 0.263392 18.163 0 17.5 0V0ZM18.3333 15H13.6383L10 18.075L6.36167 15H1.66667V2.5C1.66667 2.27899 1.75446 2.06702 1.91074 1.91074C2.06702 1.75446 2.27899 1.66667 2.5 1.66667H17.5C17.721 1.66667 17.933 1.75446 18.0893 1.91074C18.2455 2.06702 18.3333 2.27899 18.3333 2.5V15Z" fill="#7A5AF8"/>
<path d="M10 4.16406H5V5.83073H10V4.16406Z" fill="#7A5AF8"/>
<path d="M15 7.5H5V9.16666H15V7.5Z" fill="#7A5AF8"/>
<path d="M15 10.8359H5V12.5026H15V10.8359Z" fill="#7A5AF8"/>
</g>
<defs>
<clipPath id="clip0_4133_23800">
<rect width="20" height="20" fill="white"/>
</clipPath>
</defs>
</svg>
