<svg width="21" height="21" viewBox="0 0 21 21" fill="none" xmlns="http://www.w3.org/2000/svg">
<path d="M6.66031 2.27704C6.66031 2.10618 6.59243 1.94232 6.47162 1.8215C6.3508 1.70069 6.18694 1.63281 6.01608 1.63281C5.84522 1.63281 5.68135 1.70069 5.56054 1.8215C5.43972 1.94232 5.37184 2.10618 5.37184 2.27704V3.63422C4.13492 3.733 3.32405 3.97524 2.72792 4.57222C2.13093 5.16835 1.8887 5.98008 1.78906 7.21615H18.8328C18.7332 5.97922 18.491 5.16835 17.894 4.57222C17.2978 3.97524 16.4861 3.733 15.2501 3.63336V2.27704C15.2501 2.10618 15.1822 1.94232 15.0614 1.8215C14.9405 1.70069 14.7767 1.63281 14.6058 1.63281C14.435 1.63281 14.2711 1.70069 14.1503 1.8215C14.0295 1.94232 13.9616 2.10618 13.9616 2.27704V3.57667C13.3904 3.5655 12.7496 3.5655 12.0289 3.5655H8.593C7.87232 3.5655 7.23152 3.5655 6.66031 3.57667V2.27704Z" fill="#7A5AF8"/>
<path fill-rule="evenodd" clip-rule="evenodd" d="M1.71875 10.4405C1.71875 9.71983 1.71875 9.07903 1.72992 8.50781H18.8871C18.8982 9.07903 18.8982 9.71983 18.8982 10.4405V12.1585C18.8982 15.3976 18.8982 17.0177 17.8915 18.0235C16.8848 19.0294 15.2656 19.0302 12.0264 19.0302H8.59054C5.35135 19.0302 3.73133 19.0302 2.72547 18.0235C1.71961 17.0168 1.71875 15.3976 1.71875 12.1585V10.4405ZM14.6034 12.1585C14.8312 12.1585 15.0497 12.068 15.2108 11.9069C15.3718 11.7458 15.4623 11.5273 15.4623 11.2995C15.4623 11.0717 15.3718 10.8532 15.2108 10.6921C15.0497 10.531 14.8312 10.4405 14.6034 10.4405C14.3756 10.4405 14.1571 10.531 13.996 10.6921C13.8349 10.8532 13.7444 11.0717 13.7444 11.2995C13.7444 11.5273 13.8349 11.7458 13.996 11.9069C14.1571 12.068 14.3756 12.1585 14.6034 12.1585ZM14.6034 15.5944C14.8312 15.5944 15.0497 15.5039 15.2108 15.3428C15.3718 15.1817 15.4623 14.9632 15.4623 14.7354C15.4623 14.5076 15.3718 14.2891 15.2108 14.128C15.0497 13.9669 14.8312 13.8764 14.6034 13.8764C14.3756 13.8764 14.1571 13.9669 13.996 14.128C13.8349 14.2891 13.7444 14.5076 13.7444 14.7354C13.7444 14.9632 13.8349 15.1817 13.996 15.3428C14.1571 15.5039 14.3756 15.5944 14.6034 15.5944ZM11.1675 11.2995C11.1675 11.5273 11.077 11.7458 10.9159 11.9069C10.7548 12.068 10.5363 12.1585 10.3085 12.1585C10.0807 12.1585 9.8622 12.068 9.70111 11.9069C9.54002 11.7458 9.44952 11.5273 9.44952 11.2995C9.44952 11.0717 9.54002 10.8532 9.70111 10.6921C9.8622 10.531 10.0807 10.4405 10.3085 10.4405C10.5363 10.4405 10.7548 10.531 10.9159 10.6921C11.077 10.8532 11.1675 11.0717 11.1675 11.2995ZM11.1675 14.7354C11.1675 14.9632 11.077 15.1817 10.9159 15.3428C10.7548 15.5039 10.5363 15.5944 10.3085 15.5944C10.0807 15.5944 9.8622 15.5039 9.70111 15.3428C9.54002 15.1817 9.44952 14.9632 9.44952 14.7354C9.44952 14.5076 9.54002 14.2891 9.70111 14.128C9.8622 13.9669 10.0807 13.8764 10.3085 13.8764C10.5363 13.8764 10.7548 13.9669 10.9159 14.128C11.077 14.2891 11.1675 14.5076 11.1675 14.7354ZM6.01362 12.1585C6.24144 12.1585 6.45992 12.068 6.62101 11.9069C6.7821 11.7458 6.8726 11.5273 6.8726 11.2995C6.8726 11.0717 6.7821 10.8532 6.62101 10.6921C6.45992 10.531 6.24144 10.4405 6.01362 10.4405C5.78581 10.4405 5.56732 10.531 5.40624 10.6921C5.24515 10.8532 5.15465 11.0717 5.15465 11.2995C5.15465 11.5273 5.24515 11.7458 5.40624 11.9069C5.56732 12.068 5.78581 12.1585 6.01362 12.1585ZM6.01362 15.5944C6.24144 15.5944 6.45992 15.5039 6.62101 15.3428C6.7821 15.1817 6.8726 14.9632 6.8726 14.7354C6.8726 14.5076 6.7821 14.2891 6.62101 14.128C6.45992 13.9669 6.24144 13.8764 6.01362 13.8764C5.78581 13.8764 5.56732 13.9669 5.40624 14.128C5.24515 14.2891 5.15465 14.5076 5.15465 14.7354C5.15465 14.9632 5.24515 15.1817 5.40624 15.3428C5.56732 15.5039 5.78581 15.5944 6.01362 15.5944Z" fill="#7A5AF8"/>
</svg>
