<svg width="21" height="22" viewBox="0 0 21 22" fill="none" xmlns="http://www.w3.org/2000/svg">
<path d="M3.4367 18.5315C2.96426 18.5315 2.55997 18.3634 2.22383 18.0272C1.88768 17.6911 1.71932 17.2865 1.71875 16.8135V7.36478C1.71875 6.89235 1.88711 6.48806 2.22383 6.15191C2.56054 5.81577 2.96484 5.64741 3.4367 5.64684H6.8726V3.92889C6.8726 3.45645 7.04096 3.05216 7.37767 2.71601C7.71439 2.37987 8.11868 2.21151 8.59055 2.21094H12.0264C12.4989 2.21094 12.9035 2.3793 13.2402 2.71601C13.5769 3.05273 13.745 3.45702 13.7444 3.92889V5.64684H17.1803C17.6527 5.64684 18.0573 5.81519 18.394 6.15191C18.7307 6.48863 18.8988 6.89292 18.8982 7.36478V16.8135C18.8982 17.2859 18.7302 17.6905 18.394 18.0272C18.0579 18.364 17.6533 18.532 17.1803 18.5315H3.4367ZM8.59055 5.64684H12.0264V3.92889H8.59055V5.64684Z" fill="#7A5AF8"/>
</svg>
