<svg width="16" height="16" viewBox="0 0 16 16" fill="none" xmlns="http://www.w3.org/2000/svg">
<path d="M11.1642 2.37594V1.33594C11.1642 1.0626 10.9375 0.835938 10.6642 0.835938C10.3909 0.835938 10.1642 1.0626 10.1642 1.33594V2.33594H5.83088V1.33594C5.83088 1.0626 5.60422 0.835938 5.33088 0.835938C5.05755 0.835938 4.83088 1.0626 4.83088 1.33594V2.37594C3.03088 2.5426 2.15755 3.61594 2.02422 5.20927C2.01088 5.4026 2.17088 5.5626 2.35755 5.5626H13.6375C13.8309 5.5626 13.9909 5.39594 13.9709 5.20927C13.8375 3.61594 12.9642 2.5426 11.1642 2.37594Z" fill="#7A5AF8"/>
<path d="M13.3333 6.5625H2.66667C2.3 6.5625 2 6.8625 2 7.22917V11.3358C2 13.3358 3 14.6692 5.33333 14.6692H10.6667C13 14.6692 14 13.3358 14 11.3358V7.22917C14 6.8625 13.7 6.5625 13.3333 6.5625ZM6.14 12.1425C6.07333 12.2025 6 12.2492 5.92 12.2825C5.84 12.3158 5.75333 12.3358 5.66667 12.3358C5.58 12.3358 5.49333 12.3158 5.41333 12.2825C5.33333 12.2492 5.26 12.2025 5.19333 12.1425C5.07333 12.0158 5 11.8425 5 11.6692C5 11.4958 5.07333 11.3225 5.19333 11.1958C5.26 11.1358 5.33333 11.0892 5.41333 11.0558C5.57333 10.9892 5.76 10.9892 5.92 11.0558C6 11.0892 6.07333 11.1358 6.14 11.1958C6.26 11.3225 6.33333 11.4958 6.33333 11.6692C6.33333 11.8425 6.26 12.0158 6.14 12.1425ZM6.28 9.58917C6.24667 9.66917 6.2 9.7425 6.14 9.80917C6.07333 9.86917 6 9.91583 5.92 9.94917C5.84 9.9825 5.75333 10.0025 5.66667 10.0025C5.58 10.0025 5.49333 9.9825 5.41333 9.94917C5.33333 9.91583 5.26 9.86917 5.19333 9.80917C5.13333 9.7425 5.08667 9.66917 5.05333 9.58917C5.02 9.50917 5 9.4225 5 9.33583C5 9.24917 5.02 9.1625 5.05333 9.0825C5.08667 9.0025 5.13333 8.92917 5.19333 8.8625C5.26 8.8025 5.33333 8.75583 5.41333 8.7225C5.57333 8.65583 5.76 8.65583 5.92 8.7225C6 8.75583 6.07333 8.8025 6.14 8.8625C6.2 8.92917 6.24667 9.0025 6.28 9.0825C6.31333 9.1625 6.33333 9.24917 6.33333 9.33583C6.33333 9.4225 6.31333 9.50917 6.28 9.58917ZM8.47333 9.80917C8.40667 9.86917 8.33333 9.91583 8.25333 9.94917C8.17333 9.9825 8.08667 10.0025 8 10.0025C7.91333 10.0025 7.82667 9.9825 7.74667 9.94917C7.66667 9.91583 7.59333 9.86917 7.52667 9.80917C7.40667 9.6825 7.33333 9.50917 7.33333 9.33583C7.33333 9.1625 7.40667 8.98917 7.52667 8.8625C7.59333 8.8025 7.66667 8.75583 7.74667 8.7225C7.90667 8.64917 8.09333 8.64917 8.25333 8.7225C8.33333 8.75583 8.40667 8.8025 8.47333 8.8625C8.59333 8.98917 8.66667 9.1625 8.66667 9.33583C8.66667 9.50917 8.59333 9.6825 8.47333 9.80917Z" fill="#7A5AF8"/>
</svg>
