<svg width="21" height="21" viewBox="0 0 21 21" fill="none" xmlns="http://www.w3.org/2000/svg">
<path d="M16.7582 5.04143L11.6559 2.09514C10.8227 1.61412 9.79192 1.61412 8.95012 2.09514L3.8564 5.04143C3.0232 5.52245 2.50781 6.41579 2.50781 7.38643V13.2618C2.50781 14.2239 3.0232 15.1172 3.8564 15.6068L8.95871 18.5531C9.79192 19.0341 10.8227 19.0341 11.6645 18.5531L16.7668 15.6068C17.6 15.1258 18.1154 14.2325 18.1154 13.2618V7.38643C18.1068 6.41579 17.5914 5.53104 16.7582 5.04143ZM10.3073 6.3213C11.4154 6.3213 12.3087 7.21463 12.3087 8.32271C12.3087 9.43079 11.4154 10.3241 10.3073 10.3241C9.19922 10.3241 8.30589 9.43079 8.30589 8.32271C8.30589 7.22322 9.19922 6.3213 10.3073 6.3213ZM12.6094 14.3269H8.00525C7.30948 14.3269 6.90576 13.5539 7.2923 12.9784C7.8764 12.1108 9.01025 11.5267 10.3073 11.5267C11.6044 11.5267 12.7382 12.1108 13.3223 12.9784C13.7088 13.5453 13.2965 14.3269 12.6094 14.3269Z" fill="#7A5AF8"/>
</svg>
