<svg width="20" height="20" viewBox="0 0 20 20" fill="none" xmlns="http://www.w3.org/2000/svg">
<g clip-path="url(#clip0_4133_23804)">
<path d="M15.4816 1.78353L10.2607 0.0427007C10.0898 -0.0142336 9.905 -0.0142336 9.73406 0.0427007L4.51323 1.78353C3.68315 2.05927 2.96108 2.58958 2.4496 3.29913C1.93812 4.00867 1.66326 4.86136 1.66406 5.73603V10.0002C1.66406 16.3027 9.33073 19.7835 9.65906 19.9285C9.76558 19.9759 9.88084 20.0003 9.9974 20.0003C10.114 20.0003 10.2292 19.9759 10.3357 19.9285C10.6641 19.7835 18.3307 16.3027 18.3307 10.0002V5.73603C18.3315 4.86136 18.0567 4.00867 17.5452 3.29913C17.0337 2.58958 16.3116 2.05927 15.4816 1.78353V1.78353ZM16.6641 10.0002C16.6641 14.546 11.3982 17.5277 9.9974 18.241C8.5949 17.5302 3.33073 14.5577 3.33073 10.0002V5.73603C3.33078 5.21127 3.49596 4.69982 3.80287 4.27415C4.10978 3.84849 4.54285 3.53019 5.04073 3.36437L9.9974 1.71187L14.9541 3.36437C15.4519 3.53019 15.885 3.84849 16.1919 4.27415C16.4988 4.69982 16.664 5.21127 16.6641 5.73603V10.0002Z" fill="#7A5AF8"/>
<path d="M12.7536 6.91624L9.26357 10.4162L7.39357 8.46624C7.31852 8.38419 7.22782 8.31799 7.12679 8.27153C7.02576 8.22508 6.91646 8.19931 6.80532 8.19575C6.69418 8.19219 6.58345 8.21091 6.47966 8.25081C6.37586 8.29071 6.28111 8.35097 6.20096 8.42805C6.12082 8.50514 6.05692 8.59748 6.01301 8.69964C5.96911 8.80181 5.9461 8.91172 5.94533 9.02292C5.94457 9.13411 5.96606 9.24433 6.00855 9.34709C6.05104 9.44985 6.11367 9.54307 6.19274 9.62125L8.1144 11.6213C8.25772 11.776 8.43094 11.9002 8.62359 11.9861C8.81623 12.072 9.02431 12.118 9.23524 12.1213H9.26274C9.46945 12.1219 9.67424 12.0815 9.86522 12.0024C10.0562 11.9233 10.2296 11.8071 10.3752 11.6604L13.9352 8.10041C14.013 8.02282 14.0747 7.93068 14.1168 7.82924C14.159 7.7278 14.1807 7.61905 14.1809 7.50921C14.181 7.39937 14.1594 7.29057 14.1175 7.18905C14.0756 7.08752 14.0141 6.99525 13.9365 6.91749C13.8589 6.83974 13.7668 6.77803 13.6653 6.73588C13.5639 6.69374 13.4551 6.67199 13.3453 6.67188C13.2354 6.67176 13.1267 6.69328 13.0251 6.73521C12.9236 6.77714 12.8313 6.83865 12.7536 6.91624V6.91624Z" fill="#7A5AF8"/>
</g>
<defs>
<clipPath id="clip0_4133_23804">
<rect width="20" height="20" fill="white"/>
</clipPath>
</defs>
</svg>
