<svg width="20" height="20" viewBox="0 0 20 20" fill="none" xmlns="http://www.w3.org/2000/svg">
<g clip-path="url(#clip0_4133_23808)">
<path d="M7.5 10C6.5111 10 5.5444 9.70676 4.72215 9.15735C3.89991 8.60794 3.25904 7.82705 2.8806 6.91342C2.50217 5.99979 2.40315 4.99446 2.59608 4.02455C2.789 3.05465 3.26521 2.16373 3.96447 1.46447C4.66373 0.765206 5.55465 0.289002 6.52455 0.0960758C7.49446 -0.0968503 8.49979 0.00216643 9.41342 0.380605C10.327 0.759043 11.1079 1.39991 11.6573 2.22215C12.2068 3.0444 12.5 4.0111 12.5 5C12.4987 6.32568 11.9715 7.59668 11.0341 8.53407C10.0967 9.47147 8.82568 9.99868 7.5 10V10ZM7.5 1.66667C6.84073 1.66667 6.19627 1.86217 5.6481 2.22844C5.09994 2.59471 4.6727 3.1153 4.4204 3.72439C4.16811 4.33348 4.1021 5.0037 4.23072 5.6503C4.35934 6.29691 4.6768 6.89085 5.14298 7.35702C5.60915 7.8232 6.2031 8.14067 6.8497 8.26929C7.4963 8.3979 8.16653 8.33189 8.77561 8.0796C9.3847 7.82731 9.9053 7.40007 10.2716 6.8519C10.6378 6.30374 10.8333 5.65927 10.8333 5C10.8333 4.11595 10.4821 3.2681 9.85702 2.64298C9.2319 2.01786 8.38406 1.66667 7.5 1.66667Z" fill="#7A5AF8"/>
<path d="M15 19.9974H13.3333V15.7949C13.3325 15.1416 13.0726 14.5154 12.6106 14.0534C12.1487 13.5915 11.5224 13.3316 10.8692 13.3307H4.13083C3.47757 13.3316 2.85131 13.5915 2.38938 14.0534C1.92745 14.5154 1.66755 15.1416 1.66667 15.7949V19.9974H0V15.7949C0.00132319 14.6997 0.43696 13.6498 1.21135 12.8754C1.98575 12.101 3.03567 11.6654 4.13083 11.6641H10.8692C11.9643 11.6654 13.0143 12.101 13.7886 12.8754C14.563 13.6498 14.9987 14.6997 15 15.7949V19.9974Z" fill="#7A5AF8"/>
<path d="M18.3299 6.5625C17.8662 6.5856 17.4304 6.79147 17.1181 7.13506C16.8057 7.47864 16.6422 7.93197 16.6633 8.39583C16.6843 7.93197 16.5208 7.47864 16.2084 7.13506C15.8961 6.79147 15.4604 6.5856 14.9966 6.5625C14.5328 6.5856 14.0971 6.79147 13.7847 7.13506C13.4724 7.47864 13.3089 7.93197 13.3299 8.39583C13.3299 10.3125 16.6633 12.6733 16.6633 12.6733C16.6633 12.6733 19.9966 10.3158 19.9966 8.39583C20.0176 7.93197 19.8541 7.47864 19.5418 7.13506C19.2294 6.79147 18.7937 6.5856 18.3299 6.5625V6.5625Z" fill="#7A5AF8"/>
</g>
<defs>
<clipPath id="clip0_4133_23808">
<rect width="20" height="20" fill="white"/>
</clipPath>
</defs>
</svg>
