<svg width="23" height="20" viewBox="0 0 23 20" fill="none" xmlns="http://www.w3.org/2000/svg">
<path d="M20.6218 18.2227L18.7768 16.6161M10.9356 17.4194C12.0864 17.4194 13.226 17.222 14.2893 16.8385C15.3526 16.4549 16.3187 15.8928 17.1325 15.1842C17.9462 14.4755 18.5918 13.6342 19.0322 12.7083C19.4726 11.7824 19.6993 10.79 19.6993 9.78782C19.6993 8.78563 19.4726 7.79325 19.0322 6.86734C18.5918 5.94144 17.9462 5.10014 17.1325 4.39149C16.3187 3.68283 15.3526 3.12069 14.2893 2.73717C13.226 2.35365 12.0864 2.15625 10.9356 2.15625C8.6113 2.15625 6.38222 2.96029 4.7387 4.39149C3.09519 5.82268 2.17188 7.7638 2.17188 9.78782C2.17187 11.8118 3.09519 13.753 4.7387 15.1842C6.38222 16.6154 8.6113 17.4194 10.9356 17.4194V17.4194Z" stroke="white" stroke-opacity="0.96" stroke-width="0.932891" stroke-linecap="round" stroke-linejoin="round"/>
</svg>
