<svg width="26" height="26" viewBox="0 0 26 26" fill="none" xmlns="http://www.w3.org/2000/svg">
<path d="M15.3151 25.2928V18.5924C15.3151 18.0456 15.5323 17.5212 15.919 17.1346C16.3056 16.748 16.83 16.5308 17.3768 16.5308V8.28408C17.3768 8.28408 15.8305 7.25325 13.2534 7.25325C10.6764 7.25325 9.1301 8.28408 9.1301 8.28408V16.5308C9.67689 16.5308 10.2013 16.748 10.5879 17.1346C10.9746 17.5212 11.1918 18.0456 11.1918 18.5924V25.2928M4.49135 25.2928V18.5924C4.49135 18.0456 4.27414 17.5212 3.88751 17.1346C3.50087 16.748 2.97648 16.5308 2.42969 16.5308V8.28408C2.42969 8.28408 3.97594 7.25325 6.55302 7.25325M22.0155 25.2928V18.5924C22.0155 18.0456 22.2327 17.5212 22.6194 17.1346C23.006 16.748 23.5304 16.5308 24.0772 16.5308V8.28408C24.0772 8.28408 22.5309 7.25325 19.9539 7.25325M13.0988 5.19158C13.0988 5.19158 11.4495 4.16075 11.4495 2.87221C11.4495 2.39432 11.6393 1.936 11.9772 1.59808C12.3152 1.26015 12.7735 1.07031 13.2514 1.07031C13.7293 1.07031 14.1876 1.26015 14.5255 1.59808C14.8634 1.936 15.0533 2.39432 15.0533 2.87221C15.0533 4.16075 13.4081 5.19158 13.4081 5.19158H13.0988ZM6.3984 5.19158C6.3984 5.19158 4.74906 4.16075 4.74906 2.87221C4.74906 2.63558 4.79567 2.40127 4.88622 2.18265C4.97678 1.96404 5.1095 1.7654 5.27683 1.59808C5.44415 1.43075 5.64279 1.29803 5.8614 1.20747C6.08002 1.11692 6.31433 1.07031 6.55096 1.07031C6.78759 1.07031 7.0219 1.11692 7.24051 1.20747C7.45913 1.29803 7.65777 1.43075 7.82509 1.59808C7.99241 1.7654 8.12514 1.96404 8.21569 2.18265C8.30625 2.40127 8.35286 2.63558 8.35286 2.87221C8.35286 4.16075 6.70765 5.19158 6.70765 5.19158H6.3984ZM19.7992 5.19158C19.7992 5.19158 18.1499 4.16075 18.1499 2.87221C18.1499 2.39432 18.3397 1.936 18.6777 1.59808C19.0156 1.26015 19.4739 1.07031 19.9518 1.07031C20.4297 1.07031 20.888 1.26015 21.2259 1.59808C21.5638 1.936 21.7537 2.39432 21.7537 2.87221C21.7537 4.16075 20.1085 5.19158 20.1085 5.19158H19.7992Z" stroke="white"/>
</svg>
