<svg width="26" height="26" viewBox="0 0 26 26" fill="none" xmlns="http://www.w3.org/2000/svg">
<path fill-rule="evenodd" clip-rule="evenodd" d="M12.7484 9.0625C11.7232 9.0625 10.74 9.46977 10.015 10.1947C9.29008 10.9197 8.88281 11.9029 8.88281 12.9281C8.88281 13.9534 9.29008 14.9366 10.015 15.6615C10.74 16.3865 11.7232 16.7938 12.7484 16.7938C13.7737 16.7938 14.7569 16.3865 15.4818 15.6615C16.2068 14.9366 16.6141 13.9534 16.6141 12.9281C16.6141 11.9029 16.2068 10.9197 15.4818 10.1947C14.7569 9.46977 13.7737 9.0625 12.7484 9.0625ZM10.4291 12.9281C10.4291 12.313 10.6734 11.723 11.1084 11.2881C11.5434 10.8531 12.1333 10.6088 12.7484 10.6088C13.3636 10.6088 13.9535 10.8531 14.3885 11.2881C14.8235 11.723 15.0678 12.313 15.0678 12.9281C15.0678 13.5433 14.8235 14.1332 14.3885 14.5682C13.9535 15.0031 13.3636 15.2475 12.7484 15.2475C12.1333 15.2475 11.5434 15.0031 11.1084 14.5682C10.6734 14.1332 10.4291 13.5433 10.4291 12.9281Z" fill="white"/>
<path fill-rule="evenodd" clip-rule="evenodd" d="M12.7244 1.84375C12.2656 1.84375 11.8832 1.84375 11.5698 1.86437C11.2495 1.87727 10.9335 1.94346 10.6349 2.06023C10.2908 2.20257 9.97819 2.4113 9.71483 2.67449C9.45147 2.93767 9.24253 3.25016 9.09995 3.59411C8.95048 3.9549 8.91028 4.33631 8.89379 4.7507C8.89194 4.90221 8.85174 5.05079 8.77694 5.18256C8.70213 5.31434 8.59515 5.425 8.46599 5.50424C8.33283 5.57673 8.18347 5.61428 8.03186 5.61338C7.88025 5.61248 7.73135 5.57315 7.59906 5.49909C7.23208 5.30529 6.8816 5.14963 6.49401 5.09809C6.12491 5.04954 5.74987 5.07417 5.39029 5.17056C5.03071 5.26696 4.69364 5.43323 4.39832 5.6599C4.14824 5.86037 3.93329 6.1011 3.7623 6.3722C3.58706 6.63403 3.39532 6.96493 3.16648 7.3618L3.14071 7.40716C2.91083 7.80403 2.72013 8.13493 2.58199 8.41737C2.43768 8.71219 2.32429 9.00289 2.28305 9.32451C2.18471 10.0698 2.38642 10.8236 2.84383 11.4202C3.08195 11.7305 3.39223 11.9562 3.74271 12.1768C3.87325 12.2542 3.98201 12.3635 4.05882 12.4944C4.13562 12.6253 4.17795 12.7735 4.18185 12.9252C4.17795 13.0769 4.13562 13.2252 4.05882 13.356C3.98201 13.4869 3.87325 13.5962 3.74271 13.6736C3.39223 13.8942 3.08298 14.1199 2.84383 14.4302C2.61716 14.7255 2.45089 15.0626 2.35449 15.4222C2.2581 15.7818 2.23347 16.1568 2.28202 16.5259C2.32429 16.8475 2.43665 17.1382 2.58096 17.433C2.72013 17.7155 2.91083 18.0464 3.14071 18.4433L3.16648 18.4886C3.39532 18.8855 3.58706 19.2164 3.7623 19.4782C3.94476 19.7493 4.14061 19.9936 4.39832 20.1895C4.69356 20.4163 5.0306 20.5828 5.39018 20.6794C5.74976 20.7759 6.12484 20.8007 6.49401 20.7523C6.8816 20.7008 7.23208 20.5462 7.59906 20.3513C7.73122 20.2774 7.87994 20.2382 8.03135 20.2373C8.18276 20.2364 8.33193 20.2739 8.46496 20.3462C8.59517 20.4244 8.70309 20.5348 8.77836 20.6668C8.85363 20.7987 8.89373 20.9478 8.89482 21.0997C8.91028 21.5141 8.95048 21.8955 9.10098 22.2563C9.24333 22.6004 9.45206 22.913 9.71524 23.1763C9.97843 23.4397 10.2909 23.6486 10.6349 23.7912C10.9338 23.9149 11.2431 23.9634 11.5698 23.985C11.8832 24.0067 12.2656 24.0067 12.7244 24.0067H12.7759C13.2346 24.0067 13.6171 24.0067 13.9304 23.9861C14.2582 23.9634 14.5665 23.9149 14.8654 23.7902C15.2094 23.6478 15.5221 23.4391 15.7854 23.1759C16.0488 22.9127 16.2577 22.6003 16.4003 22.2563C16.5498 21.8955 16.59 21.5141 16.6065 21.0997C16.6081 20.948 16.6483 20.7992 16.7231 20.6673C16.7979 20.5353 16.905 20.4245 17.0343 20.3451C17.1675 20.2728 17.3169 20.2354 17.4685 20.2365C17.6201 20.2376 17.769 20.2771 17.9012 20.3513C18.2682 20.5451 18.6187 20.7008 19.0063 20.7513C19.7515 20.8496 20.5054 20.6479 21.1019 20.1905C21.3597 19.9926 21.5555 19.7493 21.738 19.4782C21.9132 19.2164 22.1049 18.8855 22.3338 18.4886L22.3596 18.4433C22.5894 18.0464 22.7801 17.7155 22.9183 17.433C23.0626 17.1382 23.176 16.8465 23.2172 16.5259C23.3156 15.7806 23.1138 15.0268 22.6564 14.4302C22.4183 14.1199 22.108 13.8942 21.7576 13.6736C21.627 13.5962 21.5183 13.4869 21.4415 13.356C21.3646 13.2252 21.3223 13.0769 21.3184 12.9252C21.3184 12.6386 21.4751 12.3541 21.7576 12.1768C22.108 11.9562 22.4173 11.7305 22.6564 11.4202C22.8831 11.1249 23.0494 10.7878 23.1458 10.4282C23.2422 10.0686 23.2668 9.6936 23.2182 9.32451C23.1697 9.00763 23.0686 8.70105 22.9193 8.41737C22.7433 8.07491 22.5566 7.73801 22.3596 7.40716L22.3338 7.3618C22.1455 7.02583 21.9468 6.6958 21.738 6.3722C21.5669 6.10147 21.3519 5.86109 21.1019 5.66093C20.8067 5.43408 20.4697 5.26762 20.1101 5.17105C19.7505 5.07448 19.3754 5.04969 19.0063 5.09809C18.6187 5.14963 18.2682 5.30426 17.9012 5.49909C17.769 5.57297 17.6203 5.61219 17.4689 5.61309C17.3175 5.61399 17.1683 5.57655 17.0353 5.50424C16.9058 5.42525 16.7984 5.31469 16.7232 5.1829C16.648 5.05112 16.6075 4.90241 16.6055 4.7507C16.59 4.33631 16.5498 3.9549 16.3993 3.59411C16.2569 3.25006 16.0482 2.93744 15.785 2.67407C15.5218 2.41071 15.2093 2.20177 14.8654 2.05919C14.5665 1.93549 14.2572 1.88705 13.9304 1.8654C13.6171 1.84375 13.2346 1.84375 12.7759 1.84375H12.7244ZM11.2266 3.48793C11.3059 3.45494 11.4265 3.42505 11.675 3.40752C11.9296 3.39 12.2595 3.39 12.7501 3.39C13.2408 3.39 13.5707 3.39 13.8253 3.40752C14.0737 3.42505 14.1943 3.45494 14.2737 3.48793C14.5902 3.61885 14.8407 3.86934 14.9716 4.1858C15.0128 4.28476 15.0468 4.44042 15.0602 4.80843C15.0912 5.62485 15.5128 6.41137 16.2612 6.84329C17.0095 7.27521 17.9012 7.24738 18.6238 6.86597C18.9496 6.69382 19.1011 6.64537 19.2083 6.63197C19.547 6.58722 19.8896 6.6788 20.1608 6.88659C20.2288 6.93916 20.3154 7.02884 20.4546 7.23501C20.5979 7.44736 20.7628 7.7329 21.0081 8.1576C21.2535 8.58231 21.4174 8.86888 21.5297 9.09772C21.64 9.32141 21.6741 9.44099 21.6844 9.52655C21.7291 9.86525 21.6375 10.2079 21.4298 10.479C21.3638 10.5646 21.2463 10.6718 20.935 10.8677C20.2422 11.3027 19.7722 12.0614 19.7722 12.9252C19.7722 13.789 20.2422 14.5477 20.935 14.9828C21.2463 15.1786 21.3638 15.2858 21.4298 15.3714C21.638 15.6425 21.7287 15.9847 21.6844 16.3239C21.6741 16.4094 21.639 16.53 21.5297 16.7527C21.4174 16.9826 21.2535 17.2681 21.0081 17.6928C20.7628 18.1175 20.5968 18.4031 20.4546 18.6154C20.3154 18.8216 20.2288 18.9113 20.1608 18.9638C19.8896 19.1716 19.547 19.2632 19.2083 19.2184C19.1011 19.205 18.9506 19.1566 18.6238 18.9844C17.9022 18.603 17.0095 18.5742 16.2612 19.0061C15.5128 19.438 15.0912 20.2256 15.0602 21.042C15.0468 21.41 15.0128 21.5657 14.9716 21.6646C14.9068 21.8211 14.8119 21.9633 14.6921 22.083C14.5724 22.2028 14.4302 22.2977 14.2737 22.3625C14.1943 22.3955 14.0737 22.4254 13.8253 22.4429C13.5707 22.4604 13.2408 22.4604 12.7501 22.4604C12.2595 22.4604 11.9296 22.4604 11.675 22.4429C11.4265 22.4254 11.3059 22.3955 11.2266 22.3625C11.0701 22.2977 10.9279 22.2028 10.8082 22.083C10.6884 21.9633 10.5934 21.8211 10.5287 21.6646C10.4875 21.5657 10.4534 21.41 10.44 21.042C10.4091 20.2256 9.9875 19.439 9.23912 19.0071C8.49073 18.5752 7.59906 18.603 6.87645 18.9844C6.5507 19.1566 6.39917 19.205 6.29196 19.2184C5.95327 19.2632 5.61066 19.1716 5.33947 18.9638C5.27144 18.9113 5.18485 18.8216 5.04569 18.6154C4.85177 18.3136 4.66716 18.0059 4.49213 17.6928C4.24679 17.2681 4.08289 16.9815 3.97053 16.7527C3.86023 16.529 3.82621 16.4094 3.8159 16.3239C3.77115 15.9852 3.86273 15.6426 4.07052 15.3714C4.13649 15.2858 4.25401 15.1786 4.56532 14.9828C5.25804 14.5477 5.7281 13.789 5.7281 12.9252C5.7281 12.0614 5.25804 11.3027 4.56532 10.8677C4.25401 10.6718 4.13649 10.5646 4.07052 10.479C3.86273 10.2079 3.77115 9.86525 3.8159 9.52655C3.82621 9.44099 3.86126 9.32038 3.97053 9.09772C4.08289 8.86785 4.24679 8.58231 4.49213 8.1576C4.73747 7.7329 4.90343 7.44736 5.04569 7.23501C5.18485 7.02884 5.27144 6.93916 5.33947 6.88659C5.61066 6.6788 5.95327 6.58722 6.29196 6.63197C6.39917 6.64537 6.54967 6.69382 6.87645 6.86597C7.59803 7.24738 8.49073 7.27624 9.23912 6.84329C9.9875 6.41137 10.4091 5.62485 10.44 4.80843C10.4534 4.44042 10.4875 4.28476 10.5287 4.1858C10.6596 3.86934 10.9101 3.61885 11.2266 3.48793Z" fill="white"/>
</svg>
