<svg width="33" height="32" viewBox="0 0 33 32" fill="none" xmlns="http://www.w3.org/2000/svg">
<circle cx="16.5234" cy="16" r="15.5" fill="#F95555" stroke="#FEFEFE"/>
<mask id="path-2-inside-1_4133_23619" fill="white">
<path d="M9.32344 24C8.88161 24 8.51929 23.6409 8.5634 23.2013C8.64132 22.4247 8.83262 21.6623 9.1324 20.9385C9.53444 19.9679 10.1237 19.086 10.8666 18.3431C11.6095 17.6003 12.4914 17.011 13.462 16.609C14.4326 16.2069 15.4729 16 16.5234 16C17.574 16 18.6143 16.2069 19.5849 16.609C20.5555 17.011 21.4374 17.6003 22.1803 18.3431C22.9232 19.086 23.5124 19.9679 23.9145 20.9385C24.2143 21.6623 24.4056 22.4247 24.4835 23.2013C24.5276 23.6409 24.1653 24 23.7234 24V24C23.2816 24 22.9286 23.6405 22.8735 23.2021C22.8023 22.6358 22.6556 22.0803 22.4363 21.5508C22.1146 20.7743 21.6432 20.0688 21.0489 19.4745C20.4546 18.8802 19.7491 18.4088 18.9726 18.0872C18.1961 17.7655 17.3639 17.6 16.5234 17.6C15.683 17.6 14.8507 17.7655 14.0743 18.0872C13.2978 18.4088 12.5922 18.8802 11.998 19.4745C11.4037 20.0688 10.9322 20.7743 10.6106 21.5508C10.3913 22.0803 10.2445 22.6358 10.1734 23.2021C10.1183 23.6405 9.76526 24 9.32344 24V24Z"/>
</mask>
<path d="M9.32344 24C8.88161 24 8.51929 23.6409 8.5634 23.2013C8.64132 22.4247 8.83262 21.6623 9.1324 20.9385C9.53444 19.9679 10.1237 19.086 10.8666 18.3431C11.6095 17.6003 12.4914 17.011 13.462 16.609C14.4326 16.2069 15.4729 16 16.5234 16C17.574 16 18.6143 16.2069 19.5849 16.609C20.5555 17.011 21.4374 17.6003 22.1803 18.3431C22.9232 19.086 23.5124 19.9679 23.9145 20.9385C24.2143 21.6623 24.4056 22.4247 24.4835 23.2013C24.5276 23.6409 24.1653 24 23.7234 24V24C23.2816 24 22.9286 23.6405 22.8735 23.2021C22.8023 22.6358 22.6556 22.0803 22.4363 21.5508C22.1146 20.7743 21.6432 20.0688 21.0489 19.4745C20.4546 18.8802 19.7491 18.4088 18.9726 18.0872C18.1961 17.7655 17.3639 17.6 16.5234 17.6C15.683 17.6 14.8507 17.7655 14.0743 18.0872C13.2978 18.4088 12.5922 18.8802 11.998 19.4745C11.4037 20.0688 10.9322 20.7743 10.6106 21.5508C10.3913 22.0803 10.2445 22.6358 10.1734 23.2021C10.1183 23.6405 9.76526 24 9.32344 24V24Z" fill="#523102" stroke="#523102" mask="url(#path-2-inside-1_4133_23619)"/>
<path d="M7.72656 12V14.4" stroke="#523102" stroke-width="2" stroke-linecap="round"/>
<path d="M25.3203 12V14.4" stroke="#523102" stroke-width="2" stroke-linecap="round"/>
</svg>
