<svg width="34" height="34" viewBox="0 0 34 34" fill="none" xmlns="http://www.w3.org/2000/svg">
<circle cx="17.3137" cy="16.7902" r="16.0082" fill="#7A5AF8" stroke="#FEFEFE" stroke-width="1.03279"/>
<mask id="path-2-inside-1_4133_23561" fill="white">
<path d="M24.7531 17.8248C25.2094 17.8248 25.5836 18.1956 25.538 18.6497C25.4575 19.4517 25.26 20.2392 24.9504 20.9866C24.5351 21.9891 23.9265 22.8999 23.1593 23.6671C22.3921 24.4343 21.4813 25.0429 20.4788 25.4582C19.4764 25.8734 18.402 26.0871 17.317 26.0871C16.232 26.0871 15.1576 25.8734 14.1551 25.4582C13.1527 25.0429 12.2419 24.4343 11.4747 23.6671C10.7074 22.8999 10.0988 21.9891 9.68362 20.9866C9.37401 20.2392 9.17644 19.4517 9.09596 18.6497C9.05041 18.1956 9.4246 17.8248 9.88092 17.8248V17.8248C10.3372 17.8248 10.7018 18.1961 10.7587 18.6489C10.8322 19.2337 10.9838 19.8074 11.2103 20.3543C11.5425 21.1562 12.0293 21.8849 12.6431 22.4987C13.2569 23.1124 13.9856 23.5993 14.7875 23.9315C15.5895 24.2637 16.449 24.4346 17.317 24.4346C18.185 24.4346 19.0445 24.2637 19.8465 23.9315C20.6484 23.5993 21.3771 23.1124 21.9908 22.4987C22.6046 21.8849 23.0915 21.1562 23.4237 20.3543C23.6502 19.8074 23.8018 19.2337 23.8752 18.6489C23.9321 18.1961 24.2967 17.8248 24.7531 17.8248V17.8248Z"/>
</mask>
<path d="M24.7531 17.8248C25.2094 17.8248 25.5836 18.1956 25.538 18.6497C25.4575 19.4517 25.26 20.2392 24.9504 20.9866C24.5351 21.9891 23.9265 22.8999 23.1593 23.6671C22.3921 24.4343 21.4813 25.0429 20.4788 25.4582C19.4764 25.8734 18.402 26.0871 17.317 26.0871C16.232 26.0871 15.1576 25.8734 14.1551 25.4582C13.1527 25.0429 12.2419 24.4343 11.4747 23.6671C10.7074 22.8999 10.0988 21.9891 9.68362 20.9866C9.37401 20.2392 9.17644 19.4517 9.09596 18.6497C9.05041 18.1956 9.4246 17.8248 9.88092 17.8248V17.8248C10.3372 17.8248 10.7018 18.1961 10.7587 18.6489C10.8322 19.2337 10.9838 19.8074 11.2103 20.3543C11.5425 21.1562 12.0293 21.8849 12.6431 22.4987C13.2569 23.1124 13.9856 23.5993 14.7875 23.9315C15.5895 24.2637 16.449 24.4346 17.317 24.4346C18.185 24.4346 19.0445 24.2637 19.8465 23.9315C20.6484 23.5993 21.3771 23.1124 21.9908 22.4987C22.6046 21.8849 23.0915 21.1562 23.4237 20.3543C23.6502 19.8074 23.8018 19.2337 23.8752 18.6489C23.9321 18.1961 24.2967 17.8248 24.7531 17.8248V17.8248Z" fill="white" stroke="white" stroke-width="1.03279" mask="url(#path-2-inside-1_4133_23561)"/>
<path d="M8.22656 12.6562V15.1349" stroke="white" stroke-width="2.06557" stroke-linecap="round"/>
<path d="M26.3984 12.6562V15.1349" stroke="white" stroke-width="2.06557" stroke-linecap="round"/>
</svg>
